<svg width="555.8800079345704" height="119.31083097132243" viewBox="0 0 410 88" class="looka-1j8o68f"><defs id="SvgjsDefs1471"></defs><g id="SvgjsG1472" featurekey="rootContainer" transform="matrix(1,0,0,1,0,0)" fill="#1e56a0"><rect xmlns="http://www.w3.org/2000/svg" width="410" height="88" rx="10" ry="10"></rect></g><g id="SvgjsG1473" featurekey="Df7oLJ-0" transform="matrix(14.213611052840843,0,0,14.213611052840843,6.738699640625159,8.738699640625159)" fill="#d6e4f0"><title xmlns="http://www.w3.org/2000/svg">maze</title><g xmlns="http://www.w3.org/2000/svg"><polygon points="2.77 1.478 3.325 1.478 3.325 1.285 2.964 1.285 2.964 0.933 2.395 0.933 2.395 1.126 2.77 1.126 2.77 1.478"></polygon><polygon points="2.396 1.93 2.59 1.93 2.59 1.361 2.237 1.361 2.237 1 2.044 1 2.044 1.555 2.396 1.555 2.396 1.93"></polygon><polygon points="3.164 2.205 3.358 2.205 3.358 1.845 3.71 1.845 3.71 1.276 3.516 1.276 3.516 1.651 3.164 1.651 3.164 2.205"></polygon><polygon points="2.763 2.059 2.413 2.059 2.403 2.498 2.597 2.502 2.603 2.253 2.957 2.253 2.957 1.684 2.763 1.684 2.763 2.059"></polygon><polygon points="4.067 2.395 3.874 2.395 3.874 2.77 3.522 2.77 3.522 3.325 3.715 3.325 3.715 2.964 4.067 2.964 4.067 2.395"></polygon><polygon points="3.513 2.396 3.07 2.396 3.07 2.59 3.707 2.59 3.707 2.237 4 2.237 4 2.044 3.513 2.044 3.513 2.396"></polygon><polygon points="3.724 3.71 3.724 3.516 3.349 3.516 3.349 3.083 2.795 3.083 2.795 3.277 3.155 3.277 3.155 3.71 3.724 3.71"></polygon><polygon points="2.747 2.503 2.747 2.942 3.316 2.942 3.316 2.748 2.941 2.748 2.941 2.503 2.747 2.503"></polygon><polygon points="2.605 4.067 2.605 3.874 2.23 3.874 2.23 3.522 1.675 3.522 1.675 3.715 2.036 3.715 2.036 4.067 2.605 4.067"></polygon><polygon points="2.956 4 2.956 3.445 2.604 3.445 2.604 3.07 2.41 3.07 2.41 3.639 2.763 3.639 2.763 4 2.956 4"></polygon><polygon points="1.484 3.349 1.836 3.349 1.836 2.795 1.642 2.795 1.642 3.155 1.29 3.155 1.29 3.724 1.484 3.724 1.484 3.349"></polygon><polygon points="2.043 3.316 2.237 3.316 2.237 2.876 2.6 2.876 2.6 2.682 2.043 2.682 2.043 3.316"></polygon><polygon points="1.126 2.23 1.497 2.23 1.497 1.675 1.304 1.675 1.304 2.036 0.933 2.036 0.933 2.605 1.126 2.605 1.126 2.23"></polygon><polygon points="1.304 2.763 1 2.763 1 2.956 1.497 2.956 1.497 2.604 1.93 2.604 1.93 2.41 1.304 2.41 1.304 2.763"></polygon><polygon points="1.651 1.909 2.205 1.909 2.205 1.716 1.845 1.716 1.845 1.29 1.276 1.29 1.276 1.484 1.651 1.484 1.651 1.909"></polygon><polygon points="1.684 2.237 2.059 2.237 2.059 2.492 2.253 2.492 2.253 2.043 1.684 2.043 1.684 2.237"></polygon></g></g><g id="SvgjsG1474" featurekey="Ua4uQk-0" transform="matrix(2.4772876491532023,0,0,2.4772876491532023,79.99587899596105,6.5734456813259765)" fill="#f6f6f6"><path d="M6.66 14.3 l-3.1 0 l0 5.7 l-1.54 0 l0 -14.58 l4.88 0 c3.56 -0.02 5.12 2.12 5.12 4.38 c0 1.26 -0.48 2.36 -1.34 3.18 c-0.88 0.82 -2.3 1.32 -4.02 1.32 z M6.78 6.859999999999999 l-3.22 0 l0 6.02 l3.14 0 c1.3 0 2.32 -0.38 2.9 -0.98 c0.58 -0.58 0.86 -1.3 0.86 -2.06 c0 -1.42 -0.82 -2.98 -3.68 -2.98 z M14.802 10.06 l1.42 0 l0 1.96 c0.48 -0.98 1.28 -1.64 2.04 -1.92 c0.38 -0.14 0.78 -0.2 1.18 -0.2 c0.22 0 0.38 0 0.48 0.04 l0 1.54 c-0.16 -0.04 -0.36 -0.04 -0.56 -0.04 c-2.36 0 -3.1 1.94 -3.1 3.7 l0 4.86 l-1.46 0 l0 -9.94 z M26.744 20.18 c-0.92 0 -1.8 -0.24 -2.58 -0.68 c-0.78 -0.46 -1.4 -1.08 -1.84 -1.86 c-0.46 -0.78 -0.68 -1.64 -0.68 -2.58 c0 -1.46 0.48 -2.7 1.48 -3.68 c0.98 -1 2.2 -1.5 3.66 -1.5 c2.82 -0.06 5.18 2.32 5.14 5.12 c0.04 2.88 -2.32 5.24 -5.18 5.18 z M26.784 18.88 c1.04 0 1.92 -0.38 2.62 -1.12 c0.68 -0.74 1.02 -1.64 1.02 -2.7 s-0.34 -1.98 -1.04 -2.76 c-0.7 -0.76 -1.56 -1.14 -2.64 -1.14 c-1.04 0 -1.92 0.38 -2.6 1.12 s-1.02 1.64 -1.02 2.72 c-0.04 2.06 1.54 3.92 3.66 3.88 z M35.705999999999996 14.98 c0 1.4 0.58 2.62 1.68 3.34 c0.56 0.38 1.2 0.56 1.92 0.56 c0.84 0 1.58 -0.28 2.04 -0.62 c0.22 -0.16 0.42 -0.36 0.62 -0.6 c0.36 -0.48 0.52 -0.8 0.66 -1.16 l1.34 0.44 c-0.22 0.78 -0.76 1.54 -1.52 2.16 c-0.76 0.64 -1.92 1.08 -3.16 1.08 c-2.84 0.04 -5.1 -2.18 -5.06 -5.12 c0 -0.98 0.24 -1.86 0.7 -2.66 s1.08 -1.42 1.86 -1.86 s1.62 -0.66 2.56 -0.66 c1.12 0 2.12 0.32 2.96 0.92 c0.86 0.64 1.4 1.38 1.6 2.26 l-1.32 0.44 c-0.22 -0.8 -1.24 -2.32 -3.28 -2.32 c-1.04 0 -1.9 0.36 -2.58 1.1 s-1.02 1.64 -1.02 2.7 z M50.34799999999999 20.08 c-2.16 0 -2.82 -1.2 -2.82 -2.66 l0 -6.08 l-1.84 0 l0 -1.28 l1.84 0 l0 -2.86 l1.44 0 l0 2.86 l2.52 0 l0 1.28 l-2.52 0 l0 6.06 c0 0.92 0.54 1.4 1.62 1.4 c0.34 0 0.64 -0.04 0.9 -0.08 l0 1.2 c-0.32 0.1 -0.7 0.16 -1.14 0.16 z M58.80999999999999 20.18 c-0.92 0 -1.8 -0.24 -2.58 -0.68 c-0.78 -0.46 -1.4 -1.08 -1.84 -1.86 c-0.46 -0.78 -0.68 -1.64 -0.68 -2.58 c0 -1.46 0.48 -2.7 1.48 -3.68 c0.98 -1 2.2 -1.5 3.66 -1.5 c2.82 -0.06 5.18 2.32 5.14 5.12 c0.04 2.88 -2.32 5.24 -5.18 5.18 z M58.849999999999994 18.88 c1.04 0 1.92 -0.38 2.62 -1.12 c0.68 -0.74 1.02 -1.64 1.02 -2.7 s-0.34 -1.98 -1.04 -2.76 c-0.7 -0.76 -1.56 -1.14 -2.64 -1.14 c-1.04 0 -1.92 0.38 -2.6 1.12 s-1.02 1.64 -1.02 2.72 c-0.04 2.06 1.54 3.92 3.66 3.88 z M67.01199999999999 10.06 l1.42 0 l0 1.96 c0.48 -0.98 1.28 -1.64 2.04 -1.92 c0.38 -0.14 0.78 -0.2 1.18 -0.2 c0.22 0 0.38 0 0.48 0.04 l0 1.54 c-0.16 -0.04 -0.36 -0.04 -0.56 -0.04 c-2.36 0 -3.1 1.94 -3.1 3.7 l0 4.86 l-1.46 0 l0 -9.94 z M84.31399999999998 20 l-4.74 -6.38 l-4.7 6.38 l-1.8 0 l5.6 -7.46 l-5.34 -7.12 l1.78 0 l4.5 6 l4.46 -6 l1.78 0 l-5.34 7.1 l5.58 7.48 l-1.78 0 z M98.31599999999997 15.02 c0 1.8 -0.78 3.42 -2.22 4.4 c-0.72 0.48 -1.54 0.72 -2.46 0.72 c-1.62 0 -2.9 -0.72 -3.82 -2.18 l0 6.94 l-1.46 0 l0 -14.84 l1.42 0 l0 2.16 c1.02 -1.56 2.3 -2.34 3.86 -2.34 c1.38 0 2.62 0.62 3.42 1.6 c0.78 0.96 1.26 2.24 1.26 3.54 z M93.35599999999998 18.88 c1.06 0 1.9 -0.38 2.54 -1.1 c0.62 -0.74 0.94 -1.64 0.94 -2.72 c0 -1.4 -0.54 -2.62 -1.62 -3.34 c-0.52 -0.36 -1.16 -0.54 -1.86 -0.54 c-2.02 -0.04 -3.62 1.84 -3.56 3.82 c0 1.04 0.32 1.96 1 2.72 c0.68 0.78 1.52 1.16 2.56 1.16 z M110.13799999999998 15.48 l-8.04 0 c0.06 0.98 0.42 1.78 1.1 2.42 c0.68 0.66 1.5 0.98 2.46 0.98 c1.5 0 2.62 -0.74 3.08 -2.12 l1.28 0.4 c-0.28 0.94 -0.82 1.68 -1.62 2.22 c-0.8 0.52 -1.7 0.8 -2.72 0.8 c-0.94 0 -1.8 -0.24 -2.58 -0.7 s-1.38 -1.08 -1.8 -1.88 c-0.44 -0.78 -0.66 -1.64 -0.66 -2.58 c0 -0.9 0.2 -1.74 0.62 -2.52 c0.4 -0.8 0.98 -1.42 1.74 -1.9 c0.74 -0.48 1.58 -0.72 2.48 -0.72 c0.98 0 1.84 0.22 2.56 0.68 c0.72 0.44 1.26 1.06 1.6 1.82 c0.36 0.76 0.52 1.62 0.52 2.62 c0 0.1 0 0.26 -0.02 0.48 z M102.11799999999998 14.24 l6.58 0 c-0.1 -0.92 -0.44 -1.66 -1 -2.24 c-0.56 -0.56 -1.3 -0.84 -2.22 -0.84 c-0.86 0 -1.58 0.3 -2.22 0.9 c-0.64 0.62 -1.02 1.34 -1.14 2.18 z M113.13999999999997 10.06 l1.42 0 l0 1.96 c0.48 -0.98 1.28 -1.64 2.04 -1.92 c0.38 -0.14 0.78 -0.2 1.18 -0.2 c0.22 0 0.38 0 0.48 0.04 l0 1.54 c-0.16 -0.04 -0.36 -0.04 -0.56 -0.04 c-2.36 0 -3.1 1.94 -3.1 3.7 l0 4.86 l-1.46 0 l0 -9.94 z M124.18199999999997 20.08 c-2.16 0 -2.82 -1.2 -2.82 -2.66 l0 -6.08 l-1.84 0 l0 -1.28 l1.84 0 l0 -2.86 l1.44 0 l0 2.86 l2.52 0 l0 1.28 l-2.52 0 l0 6.06 c0 0.92 0.54 1.4 1.62 1.4 c0.34 0 0.64 -0.04 0.9 -0.08 l0 1.2 c-0.32 0.1 -0.7 0.16 -1.14 0.16 z"></path></g></svg>